<?xml version="1.0" encoding="utf-8"?>
<!-- Generator: Adobe Illustrator 21.0.0, SVG Export Plug-In . SVG Version: 6.00 Build 0)  -->
<svg version="1.1" id="Layer_1" xmlns="http://www.w3.org/2000/svg" xmlns:xlink="http://www.w3.org/1999/xlink" x="0px" y="0px"
	 viewBox="0 0 121 40" style="enable-background:new 0 0 121 40;" xml:space="preserve">
<style type="text/css">
	.st0{fill:#6CA398;}
</style>
<g>
	<g>
		<g>
			<path class="st0" d="M16.6,16c0.1-0.1,0.2-0.1,0.3-0.1s0.2,0,0.3,0.1c0.2,0.2,0.2,0.4,0,0.6c-0.4,0.4-1,0.7-1.8,1
				c-0.8,0.3-1.9,0.6-3.3,0.9c-0.3,0.9-0.6,1.6-1,2.3c-0.3,0.7-0.8,1.4-1.2,2.1c-0.5,0.7-1,1.2-1.7,1.6c-0.6,0.4-1.3,0.6-2,0.6
				c-0.8,0-1.5-0.2-2-0.6c-0.5-0.4-0.8-0.9-0.9-1.5c0-0.1,0-0.2,0-0.3v-0.1c0-0.6,0.2-1.1,0.5-1.5c0.3-0.5,0.8-0.9,1.3-1.2
				c0.6-0.3,1.2-0.6,1.8-0.9c0.6-0.2,1.4-0.5,2.2-0.7c0-0.1,0.2-0.6,0.4-1.4c0.5-1.7,0.8-3.5,1.1-5.4S11,8.2,11,7.2
				c0-1.9-0.1-3.4-0.4-4.4c-0.3-1-0.6-1.5-1-1.5C8.8,1.3,7.9,2.1,7,3.8c-1,1.8-1.8,4.3-2.4,7.4C4.2,13,4,14.8,3.8,16.6
				c-0.1,1.8-0.2,3.1-0.1,4c0,0.2,0,0.4-0.2,0.6c-0.1,0.2-0.3,0.3-0.6,0.3c0,0-0.1,0-0.2,0c-0.3,0-0.7-0.1-1-0.2
				c-0.3-0.2-0.5-0.4-0.5-0.6C0.2,15.5,0.4,9.6,1.7,3c0-0.1,0.1-0.3,0.1-0.5s0.1-0.3,0.1-0.4c0-0.3,0.2-0.5,0.4-0.7
				c0.2-0.2,0.5-0.2,0.9-0.2c0.4,0,0.8,0.2,1.1,0.6c0.3,0.3,0.4,0.8,0.4,1.3l0,0c0,0,0,0,0,0.1v0.1C4,6.6,3.6,9.9,3.4,13.2
				c0.2-0.9,0.3-1.6,0.3-1.9c0.6-3.2,1.4-5.7,2.5-7.6c0.5-0.9,1-1.7,1.6-2.2c0.8-0.8,1.7-1.2,2.7-1.2c1.1,0,1.9,0.5,2.5,1.5
				c0.8,1.2,1.1,3.2,1.1,6c0,1.3-0.1,2.9-0.4,4.7c-0.3,1.8-0.7,3.6-1.2,5.3C14.7,17,16,16.5,16.6,16z M8.9,19.3
				c-1.4,0.4-2.6,0.9-3.4,1.4c-0.8,0.5-1.2,1.2-1.2,1.9l0,0l0,0v0.1c0,0.2,0.1,0.5,0.3,0.7s0.4,0.3,0.7,0.3c0.8,0,1.6-0.6,2.4-1.9
				C8.1,21.2,8.5,20.3,8.9,19.3z"/>
			<path class="st0" d="M30.2,16c0.1,0.1,0.1,0.2,0.1,0.3s-0.1,0.2-0.2,0.3c-0.6,0.4-1.4,0.7-2.4,1s-2,0.5-2.9,0.6
				c-0.1,0.3-0.2,0.5-0.4,0.8c-0.9,1.7-2.1,2.5-3.7,2.5c-1.5,0-2.7-0.5-3.6-1.6c-0.7-0.8-1-1.7-1-2.7c0-1.1,0.2-2.1,0.7-3.2
				c-0.2-0.5-0.3-0.9-0.3-1.4c0-0.9,0.3-1.6,1-2.3s1.6-1,2.8-1c1.9,0,3.3,0.7,4.2,2.1c0.6,1,0.9,2.2,0.9,3.6c0,0.7-0.1,1.5-0.3,2.3
				c0.8-0.1,1.7-0.3,2.5-0.6s1.5-0.5,2-0.9C29.8,15.8,30.1,15.8,30.2,16z M24.1,17.5c0.3-0.8,0.4-1.6,0.4-2.4c0-1.3-0.3-2.4-0.8-3.2
				c-0.7-1.1-1.8-1.7-3.4-1.7c-0.9,0-1.7,0.2-2.2,0.7s-0.8,1.1-0.8,1.7c0,0.1,0,0.2,0,0.2c0.2-0.3,0.4-0.6,0.7-0.9
				c0.2-0.2,0.6-0.3,1.1-0.3s0.9,0.1,1.2,0.3c0.2,0.1,0.3,0.3,0.4,0.5c0,0.2,0,0.4-0.2,0.6c-0.5,0.7-1,1.6-1.3,2.7
				c1.2,1,2.6,1.5,4.3,1.5h0.6V17.5z M20.9,20.6c1.1,0,2.1-0.8,2.8-2.3h-0.2c-1.6,0-3.1-0.5-4.5-1.4c0,0.2-0.1,0.5-0.1,0.7
				c0,0.8,0.2,1.5,0.5,2.1C19.9,20.3,20.3,20.6,20.9,20.6z"/>
			<path class="st0" d="M38.8,16.3L38.8,16.3C38.8,16.4,38.8,16.4,38.8,16.3L38.8,16.3L38.8,16.3L38.8,16.3L38.8,16.3L38.8,16.3
				L38.8,16.3L38.8,16.3L38.8,16.3L38.8,16.3L38.8,16.3L38.8,16.3L38.8,16.3c-0.1,0.1-0.1,0.1-0.2,0.1l0,0l0,0l0,0l0,0l0,0l0,0l0,0
				l0,0l0,0l0,0h-0.1c-0.5-0.1-0.9-0.3-1.2-0.5c-0.3-0.2-0.6-0.5-0.8-0.7c-0.2-0.2-0.4-0.5-0.5-0.9s-0.2-0.6-0.3-0.9
				c0-0.2-0.1-0.5-0.2-0.8c-0.1-0.5-0.2-0.7-0.2-0.8c-0.4,0.1-1,0.7-1.5,1.8l0,0c-0.1,0.3-0.3,0.6-0.4,0.9c-0.3,0.9-0.6,1.9-0.8,2.9
				s-0.3,1.9-0.3,2.5c0,0,0,0.1,0,0.2c0,0.1,0,0.2,0,0.2c0,0.2,0,0.4-0.2,0.6c-0.1,0.2-0.4,0.3-0.6,0.3c0,0-0.1,0-0.2,0
				c-0.3,0-0.7-0.1-1-0.2c-0.3-0.2-0.5-0.4-0.6-0.6c-0.3-1.2-0.5-2.7-0.5-4.4c0-1.2,0.1-2.3,0.2-3.5c0-0.4,0.3-0.7,0.6-0.9
				c0.4-0.2,0.7-0.3,1.1-0.3c0.4,0,0.6,0.2,0.9,0.4c0.2,0.2,0.3,0.6,0.3,1v0.1c-0.1,1.1-0.2,1.8-0.2,2.4c0.1-0.2,0.1-0.4,0.2-0.6
				l0,0c0.1-0.4,0.3-0.8,0.5-1.3c0.9-2.1,2.1-3.1,3.4-3.1c0.8,0,1.4,0.3,1.7,1c0.1,0.3,0.3,0.9,0.3,1.9c0.1,1.3,0.3,2.2,0.6,2.7l0,0
				l0,0L38.8,16.3L38.8,16.3L38.8,16.3L38.8,16.3L38.8,16.3z"/>
			<path class="st0" d="M53.3,15.9c0.1-0.1,0.2-0.1,0.3-0.1c0.1,0,0.2,0.1,0.3,0.2c0.1,0.1,0.1,0.2,0.1,0.3
				c-0.3,1.2-0.7,2.4-1.3,3.5c-0.9,1.8-2,2.7-3.2,2.7c-1,0-1.7-0.3-2.3-1c-0.6-0.7-1-1.7-1.1-3.1l0,0c-0.1,0.3-0.3,0.6-0.3,0.7l0,0
				c-0.8,1.5-1.7,2.3-2.8,2.3c-0.8,0-1.5-0.3-2.1-0.9c-0.6-0.6-0.9-1.6-1-2.8c-0.1-1.8,0.5-3.2,1.7-4.4c0.9-0.9,1.9-1.3,3.1-1.3
				c0.8,0,1.5,0.2,2,0.7c0.1-0.4,0.1-0.6,0.1-0.6c0.1-0.3,0.3-0.5,0.6-0.6c0.3-0.1,0.7-0.2,1.1-0.1c0.4,0.1,0.8,0.3,1,0.5
				s0.3,0.5,0.2,0.8c-0.2,0.9-0.4,1.9-0.6,3.1c-0.2,1.2-0.2,2.3-0.2,3.4c0,1.1,0.2,1.8,0.5,2.2c0.1,0.1,0.2,0.2,0.3,0.2
				c0.4,0,0.8-0.2,1.2-0.7c0.4-0.5,0.8-1.1,1.2-1.9l0,0c0.5-1,0.8-2,0.9-2.8C53.1,16.1,53.2,16,53.3,15.9z M46.3,14.6
				c0-0.7-0.3-1-0.8-1c-0.3,0-0.7,0.2-1.1,0.6c-0.5,0.5-0.9,1.1-1.2,1.9c-0.3,0.8-0.5,1.7-0.4,2.6c0,0.3,0.1,0.6,0.2,0.8
				s0.2,0.4,0.3,0.5c0.1,0.1,0.2,0.1,0.3,0.1c0.5,0,0.9-0.4,1.4-1.2c0.1-0.2,0.1-0.3,0.2-0.3c0.1-0.1,0.2-0.4,0.3-0.6
				c0.3-0.6,0.6-1.5,0.9-2.7c0,0,0,0,0-0.1v-0.1C46.2,15.1,46.3,14.9,46.3,14.6z"/>
			<path class="st0" d="M80.8,16c0.1-0.1,0.2-0.1,0.3-0.1c0.1,0,0.2,0,0.3,0.1c0.2,0.2,0.2,0.4,0,0.6c-0.4,0.4-1,0.7-1.8,1
				s-1.9,0.6-3.3,0.9c-0.3,0.9-0.6,1.6-1,2.3c-0.3,0.7-0.8,1.4-1.2,2.1c-0.5,0.7-1,1.2-1.7,1.6c-0.6,0.4-1.3,0.6-2,0.6
				c-0.8,0-1.5-0.2-2-0.6c-0.5-0.4-0.8-0.9-0.9-1.5c0-0.1,0-0.2,0-0.3v-0.1c0-0.6,0.2-1.1,0.5-1.5c0.3-0.5,0.8-0.9,1.3-1.2
				c0.6-0.3,1.2-0.6,1.8-0.9c0.6-0.2,1.4-0.5,2.2-0.7c0-0.1,0.2-0.6,0.4-1.4c0.5-1.7,0.8-3.5,1.1-5.4c0.3-1.9,0.4-3.3,0.4-4.3
				c0-1.9-0.1-3.4-0.4-4.4c-0.3-1-0.6-1.5-1-1.5c-0.8,0-1.7,0.8-2.6,2.5c-1,1.8-1.8,4.3-2.4,7.4c-0.4,1.8-0.6,3.6-0.8,5.4
				c-0.1,1.8-0.2,3.1-0.1,4c0,0.2,0,0.4-0.2,0.6c-0.2,0.2-0.4,0.3-0.6,0.3c0,0-0.1,0-0.2,0c-0.3,0-0.7-0.1-1-0.2
				c-0.3-0.2-0.5-0.4-0.5-0.6c-1-5.2-0.8-11.1,0.5-17.7c0-0.1,0.1-0.3,0.1-0.5s0.1-0.3,0.1-0.4c0-0.3,0.2-0.5,0.4-0.7
				c0.2-0.2,0.5-0.2,0.9-0.2s0.8,0.2,1.1,0.6c0.3,0.3,0.4,0.8,0.4,1.3l0,0c0,0,0,0,0,0.1v0.1c-0.7,3.3-1.1,6.6-1.3,9.9
				c0.2-0.9,0.3-1.6,0.3-1.9c0.6-3.2,1.4-5.7,2.5-7.6c0.5-0.9,1-1.7,1.6-2.2c0.8-0.8,1.7-1.2,2.7-1.2c1.1,0,1.9,0.5,2.5,1.5
				c0.8,1.2,1.1,3.2,1.1,6c0,1.3-0.1,2.9-0.4,4.7s-0.7,3.6-1.2,5.3C78.9,17,80.3,16.5,80.8,16z M73.1,19.3c-1.4,0.4-2.6,0.9-3.4,1.4
				s-1.2,1.2-1.2,1.9l0,0l0,0v0.1c0,0.2,0.1,0.5,0.3,0.7c0.2,0.2,0.4,0.3,0.7,0.3c0.8,0,1.6-0.6,2.4-1.9
				C72.3,21.2,72.7,20.3,73.1,19.3z"/>
			<path class="st0" d="M90.6,15.9c0.1,0,0.2,0,0.3,0c0.1,0.1,0.2,0.1,0.2,0.3c0,0.1,0,0.2,0,0.3c-0.7,1.1-1.4,2-2.2,2.8l0,0l0,0
				l-0.2,0.2c-1.4,1.4-2.8,2.1-4.1,2.1c-1.3,0-2.4-0.5-3.2-1.5c-0.8-0.9-1.1-2.1-1.1-3.5c0-1.3,0.5-2.5,1.4-3.5
				c0.4-0.5,0.9-0.8,1.5-1.1c0.5-0.3,1.1-0.4,1.6-0.4s1,0.1,1.4,0.2c0.4,0.2,0.7,0.4,0.9,0.6c0.2,0.2,0.3,0.5,0.4,0.7
				s0.1,0.5,0.1,0.7l0,0c0,0.7-0.4,1.3-1.1,1.9c-0.7,0.6-1.8,0.9-3.2,1v0.1c0,1.2,0.2,2.2,0.6,2.8c0.3,0.6,0.8,0.8,1.3,0.8
				s1.1-0.2,1.7-0.6c0.6-0.4,1.1-0.8,1.4-1.1l0,0c0.8-0.8,1.5-1.7,2-2.6C90.4,16,90.5,15.9,90.6,15.9z M84.1,14.1
				c-0.4,0.5-0.6,1.1-0.8,1.9c1.1-0.1,1.9-0.4,2.5-0.8c0.6-0.4,0.8-0.9,0.8-1.3l0,0c0-0.1,0-0.2,0-0.3s-0.1-0.2-0.3-0.3
				c-0.2-0.1-0.4-0.2-0.6-0.2C85.1,13.1,84.6,13.5,84.1,14.1z"/>
			<path class="st0" d="M110.2,15.9c0.1-0.1,0.2-0.1,0.2-0.1s0.1,0,0.2,0c0.1,0,0.2,0.1,0.3,0.2c0.1,0.1,0.1,0.2,0,0.3
				c-0.5,1.4-0.9,2.7-1.4,3.7l0,0l0,0c-0.2,0.5-0.4,0.9-0.7,1.3c-0.2,0.4-0.5,0.8-0.9,1.3c-0.3,0.4-0.7,0.8-1.1,1.1
				c-0.4,0.3-0.8,0.4-1.2,0.4c-0.6,0-1-0.2-1.4-0.5s-0.6-0.9-0.7-1.6c-0.1-0.7-0.2-1.4-0.1-2c0-0.6,0.1-1.5,0.2-2.6
				c0.1-1,0.2-1.9,0.2-2.9s-0.1-1.6-0.4-1.9c-0.1-0.1-0.2-0.1-0.4-0.1c-0.1,0-0.3,0.1-0.6,0.3c-0.2,0.2-0.5,0.5-0.8,0.9
				c-0.5,0.8-0.9,1.7-1.2,2.5v0.1c-0.5,1.6-0.7,2.9-0.7,4.1l0,0c0,0.3-0.1,0.5-0.3,0.7s-0.5,0.3-0.8,0.3c-0.5,0-0.8-0.2-1.1-0.5
				c-0.3-0.3-0.5-0.8-0.5-1.4c0-0.5,0.1-1.6,0.2-3.3c0.1-1.5,0.2-2.6,0.1-3.3c0-1-0.2-1.6-0.5-1.8C96.7,11,96.6,11,96.4,11
				c0,0-0.1,0-0.2,0s-0.2,0.2-0.4,0.4s-0.5,0.6-0.7,1c-0.4,0.8-0.8,1.6-1.1,2.5c0,0,0,0.1-0.1,0.2c0,0.1,0,0.1-0.1,0.2
				c-0.7,2.2-1,3.9-1,5.2c0,0,0,0.1,0,0.2c0,0.1,0,0.2,0,0.2c0,0.2,0,0.4-0.2,0.6c-0.1,0.2-0.4,0.3-0.6,0.3c0,0-0.1,0-0.2,0
				c-0.3,0-0.7-0.1-1-0.2c-0.3-0.2-0.5-0.4-0.6-0.6c-0.3-1.2-0.5-2.7-0.5-4.4c0-1.2,0.1-2.3,0.2-3.5c0-0.4,0.3-0.7,0.6-0.9
				c0.4-0.2,0.7-0.3,1.1-0.3s0.6,0.2,0.9,0.4c0.2,0.2,0.3,0.6,0.3,1v0.1c-0.1,1-0.2,1.8-0.2,2.3c0-0.1,0-0.1,0.1-0.3
				c0-0.1,0.1-0.2,0.1-0.3c0.1-0.2,0.1-0.4,0.1-0.4c0.1-0.3,0.1-0.4,0.2-0.6c1.1-3.1,2.5-4.7,4-4.7c0.6,0,1.1,0.2,1.5,0.6
				c0.8,0.8,1.2,2.5,1.2,5.2c0-0.1,0.1-0.2,0.1-0.3c1-2.6,2.3-3.9,3.9-3.9c0.6,0,1.2,0.2,1.6,0.6c0.3,0.3,0.6,0.7,0.7,1.3
				c0.2,0.5,0.3,1.2,0.3,2s0,1.5,0,2s-0.1,1.3-0.2,2.3c-0.1,1.2-0.2,2.1-0.2,2.5c0,0.5,0,0.9,0.1,1.1c0.3,0,0.6-0.2,1-0.7
				c0.4-0.4,0.8-1,1.2-1.9l0,0l0,0l0.1-0.2l0,0l0,0c0.5-1,0.9-2.2,1.4-3.5C110,16,110.1,16,110.2,15.9z"/>
			<path class="st0" d="M119.9,15.9c0.1,0,0.2,0,0.3,0c0.1,0.1,0.2,0.1,0.2,0.3c0,0.1,0,0.2,0,0.3c-0.7,1.1-1.4,2-2.2,2.8l0,0l0,0
				l-0.2,0.2c-1.4,1.4-2.8,2.1-4.1,2.1s-2.4-0.5-3.2-1.5c-0.8-0.9-1.1-2.1-1.1-3.5c0-1.3,0.5-2.5,1.4-3.5c0.4-0.5,0.9-0.8,1.5-1.1
				c0.5-0.3,1.1-0.4,1.6-0.4s1,0.1,1.4,0.2c0.4,0.2,0.7,0.4,0.9,0.6c0.2,0.2,0.3,0.5,0.4,0.7c0.1,0.2,0.1,0.5,0.1,0.7l0,0
				c0,0.7-0.4,1.3-1.1,1.9c-0.7,0.6-1.8,0.9-3.2,1v0.1c0,1.2,0.2,2.2,0.6,2.8c0.3,0.6,0.8,0.8,1.3,0.8s1.1-0.2,1.7-0.6
				c0.6-0.4,1.1-0.8,1.4-1.1l0,0c0.8-0.8,1.5-1.7,2-2.6C119.7,16,119.8,15.9,119.9,15.9z M113.4,14.1c-0.4,0.5-0.6,1.1-0.8,1.9
				c1.1-0.1,1.9-0.4,2.5-0.8c0.6-0.4,0.8-0.9,0.8-1.3l0,0c0-0.1,0-0.2,0-0.3s-0.1-0.2-0.3-0.3s-0.4-0.2-0.6-0.2
				C114.5,13.1,114,13.5,113.4,14.1z"/>
		</g>
		<g>
			<g>
				<path class="st0" d="M43.7,35.5c-0.5,0.1-2.1,0.2-3.5,0.5v-0.9l-1.3,0.5C38,35.9,37.5,36,37.2,36c-1.8,0-4.1-1-4.1-3
					s2.7-3.5,5.7-3.5c0.3,0,0.9,0,1.4,0.2v-2c0-0.9-0.1-1-1.7-1v-0.4c1.2-0.1,2.7-0.3,3.5-0.5v8.3c0,0.8,0.2,0.8,1,0.9h0.6
					L43.7,35.5z M40.3,30.8c-0.5-0.5-1.4-0.7-2.2-0.7c-0.9,0-2.7,0.5-2.7,2.5c0,1.7,1.6,2.5,2.9,2.5c0.7,0,1.4-0.2,2-0.4L40.3,30.8z
					"/>
				<path class="st0" d="M52.6,34.6c-1.4,1.2-3,1.4-3.6,1.4c-2.7,0-4.2-1.4-4.2-3c0-0.9,0.5-1.8,1.4-2.4c0.9-0.7,2.1-1.1,3.3-1.1
					l0,0c1.8,0,3.3,1.1,3.3,2.2c0,0.3-0.1,0.4-0.5,0.5c-0.4,0-3.1,0.2-5.6,0.2c0,1.8,1.6,2.6,3.1,2.6c0.9,0,1.7-0.2,2.5-0.7
					L52.6,34.6z M48.9,30.1c-0.9,0-1.9,0.5-2.2,1.7c1.1,0,2.3,0,3.5,0c0.4,0,0.5-0.1,0.5-0.3C50.7,30.8,50,30.1,48.9,30.1L48.9,30.1
					z"/>
				<path class="st0" d="M59.6,31.5c-0.4-0.8-1.2-1.4-2.2-1.4c-0.8,0-1.3,0.4-1.3,0.9c0,0.6,0.8,0.9,1.8,1.2c1.6,0.4,2.8,1,2.7,1.9
					c0,1.3-1.8,2-3.6,2c-1.1,0-2.1-0.3-2.5-0.5c-0.1-0.2-0.3-1.2-0.4-1.7l0.6-0.1c0.4,0.9,1.4,1.8,2.6,1.8c0.8,0,1.5-0.4,1.5-0.9
					c0-0.6-0.6-0.9-1.7-1.2c-1.2-0.4-2.7-0.9-2.7-2c0-1,1.3-1.8,3.3-1.8c0.9,0,1.5,0.1,1.9,0.3c0.2,0.3,0.4,1.2,0.5,1.5H59.6z"/>
				<path class="st0" d="M61.8,35.9v-0.4c1.3-0.1,1.5-0.2,1.5-1.1v-2.8c0-0.9-0.1-1-1.3-1.1v-0.3c1.2-0.1,2.2-0.3,3.2-0.5v4.8
					c0,1,0.1,1,1.5,1.2v0.4L61.8,35.9z M63,27.7c0-0.5,0.6-0.8,1.2-0.8s1.1,0.3,1.1,0.8c0,0.4-0.5,0.8-1.2,0.8
					C63.5,28.4,63,28.1,63,27.7z"/>
				<path class="st0" d="M77.3,30c-0.2,0.2-0.6,0.6-1,0.7h-1.2c0.4,0.3,0.6,0.7,0.6,1.2c0,1.5-2,2.2-3.9,2.2c-0.4,0-0.8,0-1.1-0.1
					c-0.3,0.1-0.6,0.3-0.6,0.5c0,0.3,0.4,0.5,1.4,0.6c0.8,0,1.5,0,2.2,0c1.3,0,3.1,0.3,3.1,1.7c0,1.5-2.6,2.8-5.5,2.8
					c-2.5,0-3.8-0.9-3.8-1.7c0-0.3,0.2-0.6,0.6-0.8c0.5-0.3,1.2-0.7,1.7-0.9c-0.8-0.2-1.3-0.5-1.6-0.8c-0.2-0.2-0.3-0.5-0.2-0.6
					c0.9-0.2,1.6-0.6,1.9-0.8c-1-0.3-1.9-1-1.9-1.9c0-1.6,2.2-2.3,3.9-2.3l0,0c0.7,0,1.4,0.1,2.1,0.4c1.1,0,2.2-0.1,3-0.2L77.3,30z
					 M72.3,36.2c-1,0-1.5,0.1-1.9,0.3c-0.5,0.3-0.9,0.7-0.9,1c0,0.7,1.2,1.4,2.9,1.4c1.9,0,3-0.7,3-1.5c0-0.5-0.4-0.8-1-1
					S73.2,36.2,72.3,36.2L72.3,36.2z M71.9,30.1c-0.9,0-1.7,0.6-1.7,1.7c0,1.1,0.8,1.9,1.9,1.9c0.9,0,1.7-0.6,1.7-1.7
					C73.8,30.9,73.1,30.1,71.9,30.1L71.9,30.1z"/>
				<path class="st0" d="M84.3,36v-0.4c1.2-0.1,1.4-0.2,1.4-1.2v-2.3c0-1-0.6-1.6-1.9-1.6c-0.8,0-1.6,0.3-2.3,0.7v3.3
					c0,1,0.1,1,1.4,1.1V36h-4.8v-0.4c1.4-0.1,1.6-0.2,1.6-1.1v-2.8c0-0.9-0.1-1-1.3-1.1v-0.4c1-0.1,2.1-0.3,3.2-0.5v1.1
					c0.4-0.2,0.9-0.4,1.5-0.7s1.1-0.4,1.8-0.4c1.7,0,2.8,0.8,2.8,2.2v2.6c0,1,0.1,1,1.4,1.1V36H84.3z"/>
			</g>
			<g>
				<g>
					<path class="st0" d="M100.1,30.6c1.2-0.6,2-1.6,2.3-2.6c0.3-0.9,0.1-1.8-0.5-2.3s-1.5-0.4-2.4,0c-0.9,0.4-1.7,1.2-2.2,2.2
						c-0.6,1.1-0.9,1.9-1.3,2.6c-0.2,0.4-0.4,0.7-0.7,1.1c-0.3,0.3-0.7,0.7-1.4,0.8c0.7,0.1,1.3,0,1.8-0.2c0.5-0.1,1-0.3,1.4-0.5
						C98,31.5,98.9,31.2,100.1,30.6z"/>
				</g>
			</g>
			<g>
				<g>
					<path class="st0" d="M103.4,35.5c1.5,0.2,3-0.1,4-0.7c1-0.6,1.5-1.4,1.3-2.2c-0.2-0.7-1.1-1.2-2.2-1.4
						c-1.1-0.2-2.4-0.1-3.7,0.5c-1.3,0.5-2.3,1-3.2,1.3c-0.5,0.2-0.9,0.3-1.5,0.4c-0.5,0.1-1.2,0.1-1.9-0.2c0.5,0.5,1.2,0.8,1.8,1
						c0.6,0.2,1.1,0.3,1.7,0.5C100.7,35,101.8,35.3,103.4,35.5z"/>
				</g>
			</g>
			<g>
				<g>
					<path class="st0" d="M24,31.8c0.4,0.2,0.9,0.3,1.4,0.5c0.5,0.1,1.1,0.3,1.8,0.2c-0.7-0.1-1.1-0.5-1.4-0.8
						c-0.3-0.3-0.5-0.7-0.7-1.1c-0.4-0.8-0.8-1.6-1.3-2.6c-0.5-1.1-1.3-1.8-2.2-2.2c-0.8-0.4-1.7-0.5-2.4,0
						c-0.6,0.4-0.8,1.3-0.5,2.3c0.3,0.9,1.1,2,2.3,2.6C22.2,31.2,23.1,31.5,24,31.8z"/>
				</g>
			</g>
			<g>
				<g>
					<path class="st0" d="M21.4,34.7c0.5-0.1,1.1-0.3,1.7-0.5c0.6-0.2,1.2-0.5,1.8-1c-0.7,0.3-1.3,0.3-1.9,0.2
						c-0.5-0.1-1-0.2-1.5-0.4c-1-0.4-1.9-0.8-3.2-1.3c-1.3-0.5-2.6-0.6-3.7-0.5c-1.1,0.2-1.9,0.7-2.2,1.4c-0.2,0.7,0.3,1.6,1.3,2.2
						c1,0.6,2.5,0.9,4,0.7C19.2,35.3,20.3,35,21.4,34.7z"/>
				</g>
			</g>
		</g>
	</g>
</g>
</svg>
